<?xml version="1.0" encoding="UTF-8" standalone="no"?>
<!DOCTYPE svg PUBLIC "-//W3C//DTD SVG 1.1//EN" "http://www.w3.org/Graphics/SVG/1.1/DTD/svg11.dtd">
<svg width="100%" height="100%" viewBox="0 0 150 150" version="1.1" xmlns="http://www.w3.org/2000/svg" xmlns:xlink="http://www.w3.org/1999/xlink" xml:space="preserve" xmlns:serif="http://www.serif.com/" style="fill-rule:evenodd;clip-rule:evenodd;stroke-linejoin:round;stroke-miterlimit:2;">
    <g transform="matrix(4.16667,0,0,4.16667,-1591.67,-1337.5)">
        <path d="M416,325L418,325L418,353L416,353L416,355L414,355L414,357L386,357L386,355L384,355L384,353L382,353L382,325L384,325L384,323L386,323L386,321L414,321L414,323L416,323L416,325ZM404.909,352.909L404.909,344.727L403.273,344.727L403.273,343.091L404.909,343.091L404.909,341.454L408.182,341.454L408.182,339.818L409.818,339.818L409.818,338.182L411.455,338.182L411.455,330L409.818,330L409.818,325.091L406.545,325.091L406.545,326.727L404.909,326.727L404.909,328.364L403.273,328.364L403.273,326.727L396.727,326.727L396.727,328.364L395.091,328.364L395.091,326.727L393.455,326.727L393.455,325.091L390.182,325.091L390.182,330L388.545,330L388.545,338.182L390.182,338.182L390.182,339.818L391.818,339.818L391.818,341.454L395.091,341.454L395.091,344.727L391.818,344.727L391.818,343.091L390.182,343.091L390.182,341.454L386.909,341.454L386.909,343.091L388.545,343.091L388.545,346.364L390.182,346.364L390.182,348L395.091,348L395.091,352.909L404.909,352.909Z"/>
    </g>
</svg>
