<?xml version="1.0" encoding="UTF-8" standalone="no"?>
<!DOCTYPE svg PUBLIC "-//W3C//DTD SVG 1.1//EN" "http://www.w3.org/Graphics/SVG/1.1/DTD/svg11.dtd">
<svg width="100%" height="100%" viewBox="0 0 150 150" version="1.1" xmlns="http://www.w3.org/2000/svg" xmlns:xlink="http://www.w3.org/1999/xlink" xml:space="preserve" xmlns:serif="http://www.serif.com/">
    <g transform="matrix(4.16667,0,0,4.16667,-833.333,-1720.83)">
        <path d="M227,432L227,440L223,440L223,434L219,434L219,440L215,440L215,428L219,428L219,430L225,430L225,432L227,432ZM213,426L209,426L209,422L213,422L213,426ZM213,428L213,440L209,440L209,428L213,428ZM234,417L234,415L232,415L232,413L204,413L204,415L202,415L202,417L200,417L200,445L202,445L202,447L204,447L204,449L232,449L232,447L234,447L234,445L236,445L236,417L234,417Z" style="fill:rgb(3,4,4);fill-rule:nonzero;"/>
    </g>
</svg>
