<?xml version="1.0" encoding="UTF-8" standalone="no"?>
<!DOCTYPE svg PUBLIC "-//W3C//DTD SVG 1.1//EN" "http://www.w3.org/Graphics/SVG/1.1/DTD/svg11.dtd">
<svg width="100%" height="100%" viewBox="0 0 150 150" version="1.1" xmlns="http://www.w3.org/2000/svg" xmlns:xlink="http://www.w3.org/1999/xlink" xml:space="preserve" xmlns:serif="http://www.serif.com/">
    <g transform="matrix(4.16667,0,0,4.16667,-1591.67,-1337.5)">
        <path d="M416,325L418,325L418,353L416,353L416,355L414,355L414,357L386,357L386,355L384,355L384,353L382,353L382,325L384,325L384,323L386,323L386,321L414,321L414,323L416,323L416,325ZM411,337.031L411,335L407,335L407,333L405,333L405,331L401,331L401,333L399,333L399,337L397,337L397,335L395,335L395,333L393,333L393,331L389,331L389,335L391,335L391,341L393,341L393,343L389,343L389,345.042L390.965,345.042L390.965,347L401,347L401,345L403,345L403,343L405,343L405,341L407,341L407,339L409.057,339L409.057,337.031L411,337.031Z" style="fill:rgb(3,4,4);"/>
    </g>
</svg>
